<?xml version="1.0" encoding="UTF-8" standalone="no"?>
<!DOCTYPE svg PUBLIC "-//W3C//DTD SVG 1.1//EN"
 "http://www.w3.org/Graphics/SVG/1.1/DTD/svg11.dtd">
<!-- Generated by graphviz version 14.1.1 (20251213.1925)
 -->
<!-- Title: InheritanceTree Pages: 1 -->
<svg width="532pt" height="717pt"
 viewBox="0.00 0.00 532.00 717.00" xmlns="http://www.w3.org/2000/svg" xmlns:xlink="http://www.w3.org/1999/xlink">
<g id="graph0" class="graph" transform="scale(1 1) rotate(0) translate(4 712.5)">
<title>InheritanceTree</title>
<polygon fill="white" stroke="none" points="-4,4 -4,-712.5 528,-712.5 528,4 -4,4"/>
<text xml:space="preserve" text-anchor="middle" x="262" y="-7.2" font-family="Times New Roman,serif" font-size="14.00">simple_mq &#45; Inheritance Hierarchy</text>
<!-- SIMPLE_MQ -->
<g id="node1" class="node">
<title>SIMPLE_MQ</title>
<path fill="none" stroke="black" d="M151.38,-60.5C151.38,-60.5 81.38,-60.5 81.38,-60.5 75.38,-60.5 69.38,-54.5 69.38,-48.5 69.38,-48.5 69.38,-36.5 69.38,-36.5 69.38,-30.5 75.38,-24.5 81.38,-24.5 81.38,-24.5 151.38,-24.5 151.38,-24.5 157.38,-24.5 163.38,-30.5 163.38,-36.5 163.38,-36.5 163.38,-48.5 163.38,-48.5 163.38,-54.5 157.38,-60.5 151.38,-60.5"/>
<text xml:space="preserve" text-anchor="middle" x="116.38" y="-37.45" font-family="Times New Roman,serif" font-size="14.00">SIMPLE_MQ</text>
</g>
<!-- SIMPLE_MQ_MESSAGE -->
<g id="node2" class="node">
<title>SIMPLE_MQ_MESSAGE</title>
<path fill="none" stroke="black" d="M186.62,-132.5C186.62,-132.5 46.12,-132.5 46.12,-132.5 40.12,-132.5 34.12,-126.5 34.12,-120.5 34.12,-120.5 34.12,-108.5 34.12,-108.5 34.12,-102.5 40.12,-96.5 46.12,-96.5 46.12,-96.5 186.62,-96.5 186.62,-96.5 192.62,-96.5 198.62,-102.5 198.62,-108.5 198.62,-108.5 198.62,-120.5 198.62,-120.5 198.62,-126.5 192.62,-132.5 186.62,-132.5"/>
<text xml:space="preserve" text-anchor="middle" x="116.38" y="-109.45" font-family="Times New Roman,serif" font-size="14.00">SIMPLE_MQ_MESSAGE</text>
</g>
<!-- SIMPLE_MQ_QUEUE -->
<g id="node3" class="node">
<title>SIMPLE_MQ_QUEUE</title>
<path fill="none" stroke="black" d="M177.62,-204.5C177.62,-204.5 55.12,-204.5 55.12,-204.5 49.12,-204.5 43.12,-198.5 43.12,-192.5 43.12,-192.5 43.12,-180.5 43.12,-180.5 43.12,-174.5 49.12,-168.5 55.12,-168.5 55.12,-168.5 177.62,-168.5 177.62,-168.5 183.62,-168.5 189.62,-174.5 189.62,-180.5 189.62,-180.5 189.62,-192.5 189.62,-192.5 189.62,-198.5 183.62,-204.5 177.62,-204.5"/>
<text xml:space="preserve" text-anchor="middle" x="116.38" y="-181.45" font-family="Times New Roman,serif" font-size="14.00">SIMPLE_MQ_QUEUE</text>
</g>
<!-- SIMPLE_MQ_QUICK -->
<g id="node4" class="node">
<title>SIMPLE_MQ_QUICK</title>
<path fill="none" stroke="black" d="M176.12,-276.5C176.12,-276.5 56.62,-276.5 56.62,-276.5 50.62,-276.5 44.62,-270.5 44.62,-264.5 44.62,-264.5 44.62,-252.5 44.62,-252.5 44.62,-246.5 50.62,-240.5 56.62,-240.5 56.62,-240.5 176.12,-240.5 176.12,-240.5 182.12,-240.5 188.12,-246.5 188.12,-252.5 188.12,-252.5 188.12,-264.5 188.12,-264.5 188.12,-270.5 182.12,-276.5 176.12,-276.5"/>
<text xml:space="preserve" text-anchor="middle" x="116.38" y="-253.45" font-family="Times New Roman,serif" font-size="14.00">SIMPLE_MQ_QUICK</text>
</g>
<!-- SIMPLE_MQ_QUICK_SUBSCRIBER -->
<g id="node5" class="node">
<title>SIMPLE_MQ_QUICK_SUBSCRIBER</title>
<path fill="none" stroke="black" d="M220.75,-420.5C220.75,-420.5 12,-420.5 12,-420.5 6,-420.5 0,-414.5 0,-408.5 0,-408.5 0,-396.5 0,-396.5 0,-390.5 6,-384.5 12,-384.5 12,-384.5 220.75,-384.5 220.75,-384.5 226.75,-384.5 232.75,-390.5 232.75,-396.5 232.75,-396.5 232.75,-408.5 232.75,-408.5 232.75,-414.5 226.75,-420.5 220.75,-420.5"/>
<text xml:space="preserve" text-anchor="middle" x="116.38" y="-397.45" font-family="Times New Roman,serif" font-size="14.00">SIMPLE_MQ_QUICK_SUBSCRIBER</text>
</g>
<!-- SIMPLE_MQ_SUBSCRIBER -->
<g id="node6" class="node">
<title>SIMPLE_MQ_SUBSCRIBER</title>
<path fill="none" stroke="black" d="M512,-384.5C512,-384.5 352.75,-384.5 352.75,-384.5 346.75,-384.5 340.75,-378.5 340.75,-372.5 340.75,-372.5 340.75,-360.5 340.75,-360.5 340.75,-354.5 346.75,-348.5 352.75,-348.5 352.75,-348.5 512,-348.5 512,-348.5 518,-348.5 524,-354.5 524,-360.5 524,-360.5 524,-372.5 524,-372.5 524,-378.5 518,-384.5 512,-384.5"/>
<text xml:space="preserve" text-anchor="middle" x="432.38" y="-361.45" font-family="Times New Roman,serif" font-size="14.00">SIMPLE_MQ_SUBSCRIBER</text>
</g>
<!-- SIMPLE_MQ_QUICK_SUBSCRIBER&#45;&gt;SIMPLE_MQ_SUBSCRIBER -->
<g id="edge1" class="edge">
<title>SIMPLE_MQ_QUICK_SUBSCRIBER&#45;&gt;SIMPLE_MQ_SUBSCRIBER</title>
<path fill="none" stroke="black" d="M233.03,-402.5C293.97,-402.5 356,-402.5 356,-402.5 356,-402.5 356,-396.44 356,-396.44"/>
<polygon fill="none" stroke="black" points="359.5,-396.44 356,-386.44 352.5,-396.44 359.5,-396.44"/>
</g>
<!-- SIMPLE_MQ_REDIS_QUEUE -->
<g id="node7" class="node">
<title>SIMPLE_MQ_REDIS_QUEUE</title>
<path fill="none" stroke="black" d="M200.5,-492.5C200.5,-492.5 32.25,-492.5 32.25,-492.5 26.25,-492.5 20.25,-486.5 20.25,-480.5 20.25,-480.5 20.25,-468.5 20.25,-468.5 20.25,-462.5 26.25,-456.5 32.25,-456.5 32.25,-456.5 200.5,-456.5 200.5,-456.5 206.5,-456.5 212.5,-462.5 212.5,-468.5 212.5,-468.5 212.5,-480.5 212.5,-480.5 212.5,-486.5 206.5,-492.5 200.5,-492.5"/>
<text xml:space="preserve" text-anchor="middle" x="116.38" y="-469.45" font-family="Times New Roman,serif" font-size="14.00">SIMPLE_MQ_REDIS_QUEUE</text>
</g>
<!-- SIMPLE_MQ_TOPIC -->
<g id="node8" class="node">
<title>SIMPLE_MQ_TOPIC</title>
<path fill="none" stroke="black" d="M174.25,-564.5C174.25,-564.5 58.5,-564.5 58.5,-564.5 52.5,-564.5 46.5,-558.5 46.5,-552.5 46.5,-552.5 46.5,-540.5 46.5,-540.5 46.5,-534.5 52.5,-528.5 58.5,-528.5 58.5,-528.5 174.25,-528.5 174.25,-528.5 180.25,-528.5 186.25,-534.5 186.25,-540.5 186.25,-540.5 186.25,-552.5 186.25,-552.5 186.25,-558.5 180.25,-564.5 174.25,-564.5"/>
<text xml:space="preserve" text-anchor="middle" x="116.38" y="-541.45" font-family="Times New Roman,serif" font-size="14.00">SIMPLE_MQ_TOPIC</text>
</g>
<!-- LIB_TESTS -->
<g id="node9" class="node">
<title>LIB_TESTS</title>
<path fill="none" stroke="black" d="M146.5,-636.5C146.5,-636.5 86.25,-636.5 86.25,-636.5 80.25,-636.5 74.25,-630.5 74.25,-624.5 74.25,-624.5 74.25,-612.5 74.25,-612.5 74.25,-606.5 80.25,-600.5 86.25,-600.5 86.25,-600.5 146.5,-600.5 146.5,-600.5 152.5,-600.5 158.5,-606.5 158.5,-612.5 158.5,-612.5 158.5,-624.5 158.5,-624.5 158.5,-630.5 152.5,-636.5 146.5,-636.5"/>
<text xml:space="preserve" text-anchor="middle" x="116.38" y="-613.45" font-family="Times New Roman,serif" font-size="14.00">LIB_TESTS</text>
</g>
<!-- TEST_SET_BASE -->
<g id="node10" class="node">
<title>TEST_SET_BASE</title>
<path fill="none" stroke="black" d="M480.5,-636.5C480.5,-636.5 384.25,-636.5 384.25,-636.5 378.25,-636.5 372.25,-630.5 372.25,-624.5 372.25,-624.5 372.25,-612.5 372.25,-612.5 372.25,-606.5 378.25,-600.5 384.25,-600.5 384.25,-600.5 480.5,-600.5 480.5,-600.5 486.5,-600.5 492.5,-606.5 492.5,-612.5 492.5,-612.5 492.5,-624.5 492.5,-624.5 492.5,-630.5 486.5,-636.5 480.5,-636.5"/>
<text xml:space="preserve" text-anchor="middle" x="432.38" y="-613.45" font-family="Times New Roman,serif" font-size="14.00">TEST_SET_BASE</text>
</g>
<!-- LIB_TESTS&#45;&gt;TEST_SET_BASE -->
<g id="edge2" class="edge">
<title>LIB_TESTS&#45;&gt;TEST_SET_BASE</title>
<path fill="none" stroke="black" d="M158.99,-618.5C158.99,-618.5 360.29,-618.5 360.29,-618.5"/>
<polygon fill="none" stroke="black" points="360.29,-622 370.29,-618.5 360.29,-615 360.29,-622"/>
</g>
<!-- TEST_APP -->
<g id="node11" class="node">
<title>TEST_APP</title>
<path fill="none" stroke="black" d="M144.25,-708.5C144.25,-708.5 88.5,-708.5 88.5,-708.5 82.5,-708.5 76.5,-702.5 76.5,-696.5 76.5,-696.5 76.5,-684.5 76.5,-684.5 76.5,-678.5 82.5,-672.5 88.5,-672.5 88.5,-672.5 144.25,-672.5 144.25,-672.5 150.25,-672.5 156.25,-678.5 156.25,-684.5 156.25,-684.5 156.25,-696.5 156.25,-696.5 156.25,-702.5 150.25,-708.5 144.25,-708.5"/>
<text xml:space="preserve" text-anchor="middle" x="116.38" y="-685.45" font-family="Times New Roman,serif" font-size="14.00">TEST_APP</text>
</g>
<!-- TEST_SUBSCRIBER -->
<g id="node12" class="node">
<title>TEST_SUBSCRIBER</title>
<path fill="none" stroke="black" d="M173.12,-348.5C173.12,-348.5 59.62,-348.5 59.62,-348.5 53.62,-348.5 47.62,-342.5 47.62,-336.5 47.62,-336.5 47.62,-324.5 47.62,-324.5 47.62,-318.5 53.62,-312.5 59.62,-312.5 59.62,-312.5 173.12,-312.5 173.12,-312.5 179.12,-312.5 185.12,-318.5 185.12,-324.5 185.12,-324.5 185.12,-336.5 185.12,-336.5 185.12,-342.5 179.12,-348.5 173.12,-348.5"/>
<text xml:space="preserve" text-anchor="middle" x="116.38" y="-325.45" font-family="Times New Roman,serif" font-size="14.00">TEST_SUBSCRIBER</text>
</g>
<!-- TEST_SUBSCRIBER&#45;&gt;SIMPLE_MQ_SUBSCRIBER -->
<g id="edge3" class="edge">
<title>TEST_SUBSCRIBER&#45;&gt;SIMPLE_MQ_SUBSCRIBER</title>
<path fill="none" stroke="black" d="M116,-348.92C116,-357.78 116,-366.5 116,-366.5 116,-366.5 328.93,-366.5 328.93,-366.5"/>
<polygon fill="none" stroke="black" points="328.93,-370 338.93,-366.5 328.93,-363 328.93,-370"/>
</g>
</g>
</svg>
