<?xml version="1.0" encoding="UTF-8" standalone="no"?>
<!DOCTYPE svg PUBLIC "-//W3C//DTD SVG 1.1//EN"
 "http://www.w3.org/Graphics/SVG/1.1/DTD/svg11.dtd">
<!-- Generated by graphviz version 14.1.1 (20251213.1925)
 -->
<!-- Title: Dependencies Pages: 1 -->
<svg width="336pt" height="501pt"
 viewBox="0.00 0.00 336.00 501.00" xmlns="http://www.w3.org/2000/svg" xmlns:xlink="http://www.w3.org/1999/xlink">
<g id="graph0" class="graph" transform="scale(1 1) rotate(0) translate(4 496.5)">
<title>Dependencies</title>
<polygon fill="white" stroke="none" points="-4,4 -4,-496.5 332.25,-496.5 332.25,4 -4,4"/>
<text xml:space="preserve" text-anchor="middle" x="164.12" y="-7.2" font-family="Times New Roman,serif" font-size="14.00">simple_mq &#45; Dependencies</text>
<!-- simple_mq -->
<g id="node1" class="node">
<title>simple_mq</title>
<polygon fill="lightblue" stroke="black" points="77.5,-276.5 0,-276.5 0,-240.5 77.5,-240.5 77.5,-276.5"/>
<text xml:space="preserve" text-anchor="middle" x="38.75" y="-253.45" font-family="Times New Roman,serif" font-size="14.00">simple_mq</text>
</g>
<!-- simple_datetime -->
<g id="node2" class="node">
<title>simple_datetime</title>
<polygon fill="lightblue" stroke="black" points="328.25,-492.5 221.5,-492.5 221.5,-456.5 328.25,-456.5 328.25,-492.5"/>
<text xml:space="preserve" text-anchor="middle" x="274.88" y="-469.45" font-family="Times New Roman,serif" font-size="14.00">simple_datetime</text>
</g>
<!-- simple_mq&#45;&gt;simple_datetime -->
<g id="edge1" class="edge">
<title>simple_mq&#45;&gt;simple_datetime</title>
<path fill="none" stroke="black" stroke-dasharray="5,2" d="M19.25,-276.92C19.25,-329.15 19.25,-474.5 19.25,-474.5 19.25,-474.5 209.77,-474.5 209.77,-474.5"/>
<polygon fill="black" stroke="black" points="209.77,-478 219.77,-474.5 209.77,-471 209.77,-478"/>
</g>
<!-- simple_json -->
<g id="node3" class="node">
<title>simple_json</title>
<polygon fill="lightblue" stroke="black" points="315.88,-420.5 233.88,-420.5 233.88,-384.5 315.88,-384.5 315.88,-420.5"/>
<text xml:space="preserve" text-anchor="middle" x="274.88" y="-397.45" font-family="Times New Roman,serif" font-size="14.00">simple_json</text>
</g>
<!-- simple_mq&#45;&gt;simple_json -->
<g id="edge2" class="edge">
<title>simple_mq&#45;&gt;simple_json</title>
<path fill="none" stroke="black" stroke-dasharray="5,2" d="M38.25,-276.74C38.25,-315.49 38.25,-402.5 38.25,-402.5 38.25,-402.5 221.87,-402.5 221.87,-402.5"/>
<polygon fill="black" stroke="black" points="221.87,-406 231.87,-402.5 221.87,-399 221.87,-406"/>
</g>
<!-- simple_uuid -->
<g id="node4" class="node">
<title>simple_uuid</title>
<polygon fill="lightblue" stroke="black" points="316.62,-348.5 233.12,-348.5 233.12,-312.5 316.62,-312.5 316.62,-348.5"/>
<text xml:space="preserve" text-anchor="middle" x="274.88" y="-325.45" font-family="Times New Roman,serif" font-size="14.00">simple_uuid</text>
</g>
<!-- simple_mq&#45;&gt;simple_uuid -->
<g id="edge3" class="edge">
<title>simple_mq&#45;&gt;simple_uuid</title>
<path fill="none" stroke="black" stroke-dasharray="5,2" d="M58.25,-276.67C58.25,-298 58.25,-330.5 58.25,-330.5 58.25,-330.5 221.34,-330.5 221.34,-330.5"/>
<polygon fill="black" stroke="black" points="221.34,-334 231.34,-330.5 221.34,-327 221.34,-334"/>
</g>
<!-- simple_cache -->
<g id="node5" class="node">
<title>simple_cache</title>
<polygon fill="lightblue" stroke="black" points="320,-276.5 229.75,-276.5 229.75,-240.5 320,-240.5 320,-276.5"/>
<text xml:space="preserve" text-anchor="middle" x="274.88" y="-253.45" font-family="Times New Roman,serif" font-size="14.00">simple_cache</text>
</g>
<!-- simple_mq&#45;&gt;simple_cache -->
<g id="edge4" class="edge">
<title>simple_mq&#45;&gt;simple_cache</title>
<path fill="none" stroke="black" stroke-dasharray="5,2" d="M77.74,-258.5C77.74,-258.5 217.84,-258.5 217.84,-258.5"/>
<polygon fill="black" stroke="black" points="217.84,-262 227.84,-258.5 217.84,-255 217.84,-262"/>
</g>
<!-- simple_testing -->
<g id="node6" class="node">
<title>simple_testing</title>
<polygon fill="lightblue" stroke="black" points="322.62,-204.5 227.12,-204.5 227.12,-168.5 322.62,-168.5 322.62,-204.5"/>
<text xml:space="preserve" text-anchor="middle" x="274.88" y="-181.45" font-family="Times New Roman,serif" font-size="14.00">simple_testing</text>
</g>
<!-- simple_mq&#45;&gt;simple_testing -->
<g id="edge5" class="edge">
<title>simple_mq&#45;&gt;simple_testing</title>
<path fill="none" stroke="black" stroke-dasharray="5,2" d="M58.25,-240.33C58.25,-219 58.25,-186.5 58.25,-186.5 58.25,-186.5 215.29,-186.5 215.29,-186.5"/>
<polygon fill="black" stroke="black" points="215.29,-190 225.29,-186.5 215.29,-183 215.29,-190"/>
</g>
<!-- base -->
<g id="node7" class="node">
<title>base</title>
<polygon fill="lightgray" stroke="black" points="301.88,-132.5 247.88,-132.5 247.88,-96.5 301.88,-96.5 301.88,-132.5"/>
<text xml:space="preserve" text-anchor="middle" x="274.88" y="-109.45" font-family="Times New Roman,serif" font-size="14.00">base</text>
</g>
<!-- simple_mq&#45;&gt;base -->
<g id="edge6" class="edge">
<title>simple_mq&#45;&gt;base</title>
<path fill="none" stroke="black" stroke-dasharray="5,2" d="M38.25,-240.26C38.25,-201.51 38.25,-114.5 38.25,-114.5 38.25,-114.5 236.22,-114.5 236.22,-114.5"/>
<polygon fill="black" stroke="black" points="236.22,-118 246.22,-114.5 236.22,-111 236.22,-118"/>
</g>
<!-- testing -->
<g id="node8" class="node">
<title>testing</title>
<polygon fill="lightgray" stroke="black" points="301.88,-60.5 247.88,-60.5 247.88,-24.5 301.88,-24.5 301.88,-60.5"/>
<text xml:space="preserve" text-anchor="middle" x="274.88" y="-37.45" font-family="Times New Roman,serif" font-size="14.00">testing</text>
</g>
<!-- simple_mq&#45;&gt;testing -->
<g id="edge7" class="edge">
<title>simple_mq&#45;&gt;testing</title>
<path fill="none" stroke="black" stroke-dasharray="5,2" d="M19.25,-240.08C19.25,-187.85 19.25,-42.5 19.25,-42.5 19.25,-42.5 236.01,-42.5 236.01,-42.5"/>
<polygon fill="black" stroke="black" points="236.01,-46 246.01,-42.5 236.01,-39 236.01,-46"/>
</g>
</g>
</svg>
